<?xml version="1.0" encoding="UTF-8"?>
<svg width="200" height="200" viewBox="0 0 200 200" xmlns="http://www.w3.org/2000/svg" aria-hidden="true">
  <g transform="translate(100,100)">
    <g fill="#ff6b6b">
      <path d="M0,-54 C22,-54 44,-40 50,-18 C56,4 44,28 22,40 C0,52 -22,40 -38,20 C-54,0 -56,-28 -38,-44 C-20,-60 0,-54 0,-54 Z"/>
      <path d="M0,-36 C14,-36 28,-28 34,-16 C40,-4 36,8 26,18 C16,28 4,34 -8,34 C-20,34 -32,28 -40,18 C-48,8 -48,-6 -40,-18 C-32,-30 -18,-36 0,-36 Z" opacity="0.95"/>
    </g>
    <circle r="16" fill="#ffe066" stroke="#ff9f1c" stroke-width="2"/>
  </g>
</svg>
