<?xml version="1.0" encoding="UTF-8"?>
<svg width="200" height="200" viewBox="0 0 200 200" xmlns="http://www.w3.org/2000/svg" aria-hidden="true">
  <defs>
    <linearGradient id="g2" x1="0%" x2="100%">
      <stop offset="0%" stop-color="#fffbe6"/>
      <stop offset="100%" stop-color="#ffd89b"/>
    </linearGradient>
  </defs>
  <g transform="translate(100,100)">
    <g fill="url(#g2)">
      <path d="M0,-56 C14,-56 28,-46 36,-34 C44,-22 44,-6 36,6 C28,18 14,28 0,28 C-14,28 -28,18 -36,6 C-44,-6 -44,-22 -36,-34 C-28,-46 -14,-56 0,-56 Z"/>
      <path d="M0,-36 C10,-36 20,-30 26,-22 C32,-14 32,-6 26,2 C20,10 10,18 0,18 C-10,18 -20,10 -26,2 C-32,-6 -32,-14 -26,-22 C-20,-30 -10,-36 0,-36 Z" opacity="0.9"/>
    </g>
    <circle r="18" fill="#ff6f61" stroke="#ff452b" stroke-width="2"/>
  </g>
</svg>
